<svg xmlns="http://www.w3.org/2000/svg">
  <!-- Python Official -->
  <symbol id="icon-python" viewBox="0 0 128 128">
    <path fill="currentColor" d="M49.33 62h29.159C86.606 62 93 55.132 93 46.981V19.183c0-7.912-6.632-13.856-14.555-15.176-5.014-.835-10.195-1.215-15.187-1.191-4.99.023-9.612.448-13.805 1.191C37.098 6.188 35 10.758 35 19.183V30h29v4H23.776c-8.484 0-15.914 5.108-18.237 14.811-2.681 11.12-2.8 17.919 0 29.53C7.614 86.983 12.569 93 21.054 93H31V79.952C31 70.315 39.428 62 49.33 62zm-1.838-39.11c-3.026 0-5.478-2.479-5.478-5.545 0-3.079 2.451-5.581 5.478-5.581 3.015 0 5.479 2.502 5.479 5.581-.001 3.066-2.465 5.545-5.479 5.545zm74.789 25.921C120.183 40.363 116.178 34 107.682 34H97v12.981C97 57.031 88.206 65 78.489 65H49.33C41.342 65 35 72.326 35 80.326v27.8c0 7.91 6.745 12.564 14.462 14.834 9.242 2.717 17.994 3.208 29.051 0C85.862 120.831 93 116.549 93 108.126V97H64v-4h43.682c8.484 0 11.647-5.776 14.599-14.66 3.047-9.145 2.916-17.799 0-29.529zm-41.955 55.606c3.027 0 5.479 2.479 5.479 5.547 0 3.076-2.451 5.579-5.479 5.579-3.015 0-5.478-2.502-5.478-5.579 0-3.068 2.463-5.547 5.478-5.547z"></path>
  </symbol>
  <!-- FastAPI Official -->
  <symbol id="icon-fastapi" viewBox="0 0 24 24">
    <path fill="currentColor" d="M12 .0387C5.3729.0384.0003 5.3931 0 11.9988c-.001 6.6066 5.372 11.9628 12 11.9625 6.628.0003 12.001-5.3559 12-11.9625-.0003-6.6057-5.3729-11.9604-12-11.96m-.829 5.4153h7.55l-7.5805 5.3284h5.1828L5.279 18.5436q2.9466-6.5444 5.892-13.0896"></path>
  </symbol>
  <!-- SQL Server Official -->
  <symbol id="icon-sqlserver" viewBox="0 0 24 24">
    <path fill="currentColor" d="M4.724 2.505s-.08.127-.004.315c.046.116.186.256.34.404c0 0 1.615 1.576 1.813 1.804c.895 1.033 1.284 2.05 1.32 3.453c.022.9-.151 1.692-.573 2.613c-.756 1.649-2.35 3.468-4.81 5.49l.36-.12c.233-.173.548-.359 1.292-.766c1.713-.936 3.636-1.798 5.999-2.686c3.399-1.277 8.99-2.776 12.172-3.263l.331-.051l-.05-.08c-.292-.452-.49-.731-.73-1.027c-.697-.863-1.542-1.567-2.577-2.146c-1.422-.797-3.267-1.416-5.6-1.88a68 68 0 0 0-2.191-.375a209 209 0 0 1-3.924-.64c-.425-.075-1.06-.181-1.481-.272a9 9 0 0 1-.961-.258c-.268-.105-.645-.207-.726-.515m.936.909c.003-.002.063.017.137.042c.136.046.316.1.526.159q.22.061.479.127c.218.056.399.104.401.107c.024.027.391 1.198.516 1.647c.048.172.084.315.081.318a1 1 0 0 1-.09-.14c-.424-.746-1.097-1.505-1.874-2.116a3 3 0 0 1-.176-.144m1.79.494a1.3 1.3 0 0 1 .195.034c.619.136 1.725.35 2.435.47c.119.02.216.04.216.047a.4.4 0 0 1-.098.062c-.119.06-.602.349-.763.457a7 7 0 0 0-1.03.821a5 5 0 0 1-.197.192a1 1 0 0 1-.041-.137a12 12 0 0 0-.65-1.779a2 2 0 0 1-.071-.165q-.001-.002.004-.002m3.147.598c.02.007.06.13.129.404a6 6 0 0 1 .153 1.977l-.012.038l-.187-.06a47 47 0 0 0-1.562-.46a7 7 0 0 1-.56-.17c0-.022.449-.471.642-.642c.369-.326 1.362-1.098 1.397-1.087m.25.036c.011-.01 1.504.248 2.182.378c.506.097 1.237.25 1.281.269c.022.008-.054.05-.297.16c-.96.432-1.672.82-2.38 1.293c-.186.124-.341.226-.344.226c-.004 0-.006-.104-.006-.23c0-.69-.139-1.387-.391-1.976a1 1 0 0 1-.045-.12m3.86.764c.011.011-.038.306-.08.48c-.132.54-.482 1.344-.914 2.099a2 2 0 0 1-.152.246a1.5 1.5 0 0 1-.219-.115c-.422-.247-.9-.48-1.425-.697a5 5 0 0 1-.278-.12c-.024-.022 1.143-.795 1.762-1.166c.495-.297 1.292-.741 1.306-.727m.276.043c.033 0 .695.18 1.037.283c.853.255 1.837.614 2.475.904l.265.12l-.187.043c-1.561.36-2.9.773-4.188 1.296c-.107.044-.2.08-.207.08a1 1 0 0 1 .075-.185c.388-.823.638-1.687.703-2.42c.006-.067.018-.121.027-.121m-6.58 1.512c.01-.01.514.108.789.185c.413.116 1.292.41 1.292.433c0 .004-.097.089-.215.188A27 27 0 0 0 8.786 9.01a5 5 0 0 1-.308.285c-.007 0-.01-.023-.006-.05c.083-.611.065-1.395-.05-2.193a1.3 1.3 0 0 1-.02-.19zm10.61.01c.007.008-.234.385-.384.6c-.22.314-.537.726-1.261 1.637l-.954 1.202a9 9 0 0 1-.269.333c-.003 0-.05-.066-.103-.146a7.6 7.6 0 0 0-1.47-1.625a10 10 0 0 0-.27-.218a.4.4 0 0 1-.074-.063c0-.01.617-.274 1.088-.466a37 37 0 0 1 2.778-.99c.442-.135.912-.27.919-.264m.278.073a1 1 0 0 1 .207.1a12.3 12.3 0 0 1 2.428 1.824c.194.19.667.683.66.687l-.363.029c-1.53.115-3.486.44-5.37.893c-.128.03-.238.056-.246.056c-.007 0 .133-.14.311-.312c1.107-1.063 1.611-1.734 2.205-2.934c.088-.178.163-.333.166-.342zm-8.088.83c.051.01.523.23.879.408c.325.163.818.426.843.449c.003.003-.17.093-.386.201a25 25 0 0 0-1.878 1.037c-.175.107-.32.194-.325.194c-.015 0-.01-.013.088-.191a7.7 7.7 0 0 0 .738-2.002c.014-.062.03-.1.041-.097zm-.475.084c.01.01-.112.46-.19.7a9 9 0 0 1-.835 1.808l-.09.147l-.203-.197a2.7 2.7 0 0 0-.676-.5a1 1 0 0 1-.176-.102c0-.03.62-.593 1.098-.998c.343-.29 1.064-.867 1.072-.858m2.888 1.188l.177.115c.407.264.888.619 1.255.924c.206.172.605.53.687.616l.044.047l-.294.082a54 54 0 0 0-4.45 1.424a6 6 0 0 1-.32.112c-.021 0-.042.019.333-.326c.96-.883 1.807-1.856 2.44-2.802zm-.759.19c.009.009-.492.71-.789 1.106c-.356.473-.99 1.265-1.426 1.78a9 9 0 0 1-.346.397c-.01.003-.015-.05-.016-.133c0-.44-.112-.91-.308-1.308c-.083-.168-.097-.208-.08-.224c.068-.062 1.127-.666 1.794-1.023c.459-.246 1.163-.604 1.171-.595m-4.59 1.125a4 4 0 0 1 .812.518c.008.005-.087.083-.21.172c-.345.249-.87.644-1.173.886c-.32.255-.331.263-.295.207c.24-.367.36-.574.486-.84c.113-.236.224-.516.304-.76a.7.7 0 0 1 .077-.183zm1.223.96c.017-.003.04.028.139.175c.207.31.366.722.407 1.058l.008.073l-.497.192a47 47 0 0 0-2.266.94c-.155.072-.428.202-.607.292s-.325.16-.325.156s.112-.089.25-.188c1.087-.79 2.025-1.654 2.732-2.519c.075-.092.144-.172.153-.178l.006-.002zm-.564.14c.015.014-.401.484-.681.77a12 12 0 0 1-2.256 1.821c-.108.069-.206.13-.22.138c-.023.014.008-.022.386-.434c.238-.259.42-.474.628-.743a1.2 1.2 0 0 1 .362-.346c.537-.388 1.767-1.221 1.781-1.207z"></path>
  </symbol>
  <!-- PostgreSQL Official -->
  <symbol id="icon-postgresql" viewBox="0 0 24 24">
    <path fill="currentColor" d="M23.56 14.723a.5.5 0 0 0-.057-.12q-.21-.395-1.007-.231c-1.654.34-2.294.13-2.526-.02c1.342-2.048 2.445-4.522 3.041-6.83c.272-1.05.798-3.523.122-4.73a1.6 1.6 0 0 0-.15-.236C21.693.91 19.8.025 17.51.001c-1.495-.016-2.77.346-3.116.479a10 10 0 0 0-.516-.082a8 8 0 0 0-1.312-.127c-1.182-.019-2.203.264-3.05.84C8.66.79 4.729-.534 2.296 1.19C.935 2.153.309 3.873.43 6.304c.041.818.507 3.334 1.243 5.744q.69 2.26 1.433 3.582q.83 1.493 1.714 1.79c.448.148 1.133.143 1.858-.729a56 56 0 0 1 1.945-2.206c.435.235.906.362 1.39.377v.004a11 11 0 0 0-.247.305c-.339.43-.41.52-1.5.745c-.31.064-1.134.233-1.146.811a.6.6 0 0 0 .091.327c.227.423.922.61 1.015.633c1.335.333 2.505.092 3.372-.679c-.017 2.231.077 4.418.345 5.088c.221.553.762 1.904 2.47 1.904q.375.001.829-.094c1.782-.382 2.556-1.17 2.855-2.906c.15-.87.402-2.875.539-4.101c.017-.07.036-.12.057-.136c0 0 .07-.048.427.03l.044.007l.254.022l.015.001c.847.039 1.911-.142 2.531-.43c.644-.3 1.806-1.033 1.595-1.67M2.37 11.876c-.744-2.435-1.178-4.885-1.212-5.571c-.109-2.172.417-3.683 1.562-4.493c1.837-1.299 4.84-.54 6.108-.13l-.01.01C6.795 3.734 6.843 7.226 6.85 7.44c0 .082.006.199.016.36c.034.586.1 1.68-.074 2.918c-.16 1.15.194 2.276.973 3.089q.12.126.252.237c-.347.371-1.1 1.193-1.903 2.158c-.568.682-.96.551-1.088.508c-.392-.13-.813-.587-1.239-1.322c-.48-.839-.963-2.032-1.415-3.512m6.007 5.088a1.6 1.6 0 0 1-.432-.178c.089-.039.237-.09.483-.14c1.284-.265 1.482-.451 1.915-1a8 8 0 0 1 .367-.443a.4.4 0 0 0 .074-.13c.17-.151.272-.11.436-.042c.156.065.308.26.37.475c.03.102.062.295-.045.445c-.904 1.266-2.222 1.25-3.168 1.013m2.094-3.988l-.052.14c-.133.357-.257.689-.334 1.004c-.667-.002-1.317-.288-1.81-.803c-.628-.655-.913-1.566-.783-2.5c.183-1.308.116-2.447.08-3.059l-.013-.22c.296-.262 1.666-.996 2.643-.772c.446.102.718.406.83.928c.585 2.704.078 3.83-.33 4.736a9 9 0 0 0-.23.546m7.364 4.572q-.024.266-.062.596l-.146.438a.4.4 0 0 0-.018.108c-.006.475-.054.649-.115.87a4.8 4.8 0 0 0-.18 1.057c-.11 1.414-.878 2.227-2.417 2.556c-1.515.325-1.784-.496-2.02-1.221a7 7 0 0 0-.078-.227c-.215-.586-.19-1.412-.157-2.555c.016-.561-.025-1.901-.33-2.646q.006-.44.019-.892a.4.4 0 0 0-.016-.113a2 2 0 0 0-.044-.208c-.122-.428-.42-.786-.78-.935c-.142-.059-.403-.167-.717-.087c.067-.276.183-.587.309-.925l.053-.142c.06-.16.134-.325.213-.5c.426-.948 1.01-2.246.376-5.178c-.237-1.098-1.03-1.634-2.232-1.51c-.72.075-1.38.366-1.709.532a6 6 0 0 0-.196.104c.092-1.106.439-3.174 1.736-4.482a4 4 0 0 1 .303-.276a.35.35 0 0 0 .145-.064c.752-.57 1.695-.85 2.802-.833q.616.01 1.174.081c1.94.355 3.244 1.447 4.036 2.383c.814.962 1.255 1.931 1.431 2.454c-1.323-.134-2.223.127-2.68.78c-.992 1.418.544 4.172 1.282 5.496c.135.242.252.452.289.54c.24.583.551.972.778 1.256c.07.087.138.171.189.245c-.4.116-1.12.383-1.055 1.717a35 35 0 0 1-.084.815c-.046.208-.07.46-.1.766m.89-1.621c-.04-.832.27-.919.597-1.01l.135-.041a1 1 0 0 0 .134.103c.57.376 1.583.421 3.007.134c-.201.177-.518.399-.953.601c-.41.19-1.096.333-1.747.364c-.72.034-1.086-.08-1.173-.151m.57-9.271a7 7 0 0 1-.105 1.001c-.055.358-.112.728-.127 1.177c-.014.436.04.89.093 1.33c.107.887.216 1.8-.207 2.701a4 4 0 0 1-.188-.385a8 8 0 0 0-.325-.617c-.616-1.104-2.057-3.69-1.32-4.744c.38-.543 1.342-.566 2.179-.463m.228 7.013l-.085-.107l-.035-.044c.726-1.2.584-2.387.457-3.439c-.052-.432-.1-.84-.088-1.222c.013-.407.066-.755.118-1.092c.064-.415.13-.844.111-1.35a.6.6 0 0 0 .012-.19c-.046-.486-.6-1.938-1.73-3.253a7.8 7.8 0 0 0-2.688-2.04A9.3 9.3 0 0 1 17.62.746c2.052.046 3.675.814 4.824 2.283a1 1 0 0 1 .067.1c.723 1.356-.276 6.275-2.987 10.54m-8.816-6.116c-.025.18-.31.423-.621.423l-.081-.006a.8.8 0 0 1-.506-.315c-.046-.06-.12-.178-.106-.285a.22.22 0 0 1 .093-.149c.118-.089.352-.122.61-.086c.316.044.642.193.61.418m7.93-.411c.011.08-.049.2-.153.31a.72.72 0 0 1-.408.223l-.075.005c-.293 0-.541-.234-.56-.371c-.024-.177.264-.31.56-.352c.298-.042.612.009.636.185"/></symbol>
  <!-- Azure AI Official -->
  <symbol id="icon-azure" viewBox="0 0 128 128">
    <path fill="currentColor" d="M43.983 4.653a5.911 5.911 0 015.6 4.022l35.91 106.396a5.911 5.911 0 01-5.603 7.802h41.38a5.917 5.917 0 004.8-2.465 5.909 5.909 0 00.798-5.34L90.961 8.672a5.91 5.91 0 00-5.602-4.022zm-1.336.478a5.92 5.92 0 00-5.61 4.029L1.132 115.55a5.91 5.91 0 005.6 7.8h28.893c1.239 0 2.446-.41 3.452-1.113a5.923 5.923 0 002.157-2.916l7.019-20.71-13.411-12.857c-.246-.273-1.353-2.274-.369-4.002 1.108-1.659 2.955-1.659 2.955-1.659h17.285l9.074-26.145L48.274 8.321c-.042-.205-.914-1.365-2.281-2.28-1.37-.915-3.345-.909-3.345-.909zm-4.88 75.74a2.724 2.724 0 00-1.86 4.718l37.83 35.31c1.101 1.03 2.502 1.631 4.007 1.631 0 0 1.282.068 2.055-.033 1.817-.273 3.525-1.768 4.09-2.39 1.457-1.939.794-4.95.794-4.95l-11.45-34.28z"></path>
  </symbol>
  <!-- Cloudflare Official -->
  <symbol id="icon-cloudflare" viewBox="0 0 128 128">
    <path fill="currentColor" d="M87.295 89.022c.763-2.617.472-5.015-.8-6.796-1.163-1.635-3.125-2.58-5.488-2.689l-44.737-.581c-.291 0-.545-.145-.691-.363s-.182-.509-.109-.8c.145-.436.581-.763 1.054-.8l45.137-.581c5.342-.254 11.157-4.579 13.192-9.885l2.58-6.723c.109-.291.145-.581.073-.872-2.906-13.158-14.644-22.97-28.672-22.97-12.938 0-23.913 8.359-27.838 19.952a13.35 13.35 0 0 0-9.267-2.58c-6.215.618-11.193 5.597-11.811 11.811-.145 1.599-.036 3.162.327 4.615C10.104 70.051 2 78.337 2 88.549c0 .909.073 1.817.182 2.726a.895.895 0 0 0 .872.763h82.57c.472 0 .909-.327 1.054-.8l.617-2.216z"/><path fill="currentColor" d="M101.542 60.275c-.4 0-.836 0-1.236.036-.291 0-.545.218-.654.509l-1.744 6.069c-.763 2.617-.472 5.015.8 6.796 1.163 1.635 3.125 2.58 5.488 2.689l9.522.581c.291 0 .545.145.691.363.145.218.182.545.109.8-.145.436-.581.763-1.054.8l-9.924.582c-5.379.254-11.157 4.579-13.192 9.885l-.727 1.853c-.145.363.109.727.509.727h34.089c.4 0 .763-.254.872-.654.581-2.108.909-4.325.909-6.614 0-13.447-10.975-24.422-24.458-24.422"/>
  </symbol>
  <!-- Power BI Official -->
  <symbol id="icon-powerbi" viewBox="0 0 24 24">
    <path fill="currentColor" d="M10 21H6.002C4.897 21 4 20.103 4 19V9.002C4 7.897 4.897 7 6.002 7H10V21zm7 0h-4V4.002C13 2.897 13.897 2 15.002 2H17v19zm7 0h-4V11.002C20 9.897 20.897 9 22.002 9H24v12z"></path>
  </symbol>
  <!-- Wazuh Official -->
  <symbol id="icon-wazuh" viewBox="0 0 24 24">
    <path fill="currentColor" d="M12 0l10.4 6v12L12 24 1.6 18V6L12 0zm0 2.3L3.6 7.1v9.8l8.4 4.8 8.4-4.8V7.1L12 2.3zm0 4.2l5.2 3v5l-5.2 3-5.2-3v-5l5.2-3z"></path>
  </symbol>
  <!-- Fortinet Official (Solid Shield) -->
  <symbol id="icon-fortinet" viewBox="0 0 24 24">
    <path fill="currentColor" d="M12 2L4 5v11c0 5.25 3.41 10.19 8 11.31 4.59-1.12 8-6.06 8-11.31V5L12 2zM11 10H9V8h2v2zm4 0h-2V8h2v2zm-4 4H9v-2h2v2zm4 0h-2v-2h2v2z"></path>
  </symbol>
  <!-- Wireshark Official (Shark Fin Solid) -->
  <symbol id="icon-wireshark" viewBox="0 0 64 64">
    <path fill="currentColor" d="M45.623 11.167c-13.376.21-20.985 8.08-24.973 15.726-3.497 6.676-4.234 12.43-4.418 14.002L0 41.056v2.638l17.336-.16a1.32 1.32 0 0 0 1.289-1.209s.675-7.1 4.356-14.21c3.436-6.64 9.45-13.094 20.3-14.106-6.688 13.34.675 28.802.675 28.802a1.32 1.32 0 0 0 1.166.761L64 43.73v-2.638l-17.948-.16c-.86-2.013-6.565-16.315.675-27.74a1.32 1.32 0 0 0-1.104-2.025z"></path>
  </symbol>
  <!-- Volatility Official (Lambda) -->
  <symbol id="icon-volatility" viewBox="0 0 24 24">
    <path fill="currentColor" d="M12 2L2 21h4.5l5.5-13 5.5 13H22L12 2z"></path>
  </symbol>
  <!-- ISO Standard -->
  <symbol id="icon-iso" viewBox="0 0 24 24">
    <path fill="currentColor" d="M12 1L3 5v6c0 5.55 3.84 10.74 9 12 5.16-1.26 9-6.45 9-12V5l-9-4zm-1 6h2v2h-2V7zm0 4h2v6h-2v-6z"></path>
  </symbol>
  <!-- Social & UI -->
  <symbol id="icon-linkedin" viewBox="0 0 24 24">
    <path fill="currentColor" d="M20.447 20.452h-3.554v-5.569c0-1.328-.027-3.037-1.852-3.037-1.853 0-2.136 1.445-2.136 2.939v5.667H9.351V9h3.414v1.561h.046c.477-.9 1.637-1.85 3.37-1.85 3.601 0 4.267 2.37 4.267 5.455v6.286zM5.337 7.433c-1.144 0-2.063-.926-2.063-2.065 0-1.138.92-2.063 2.063-2.063 1.14 0 2.064.925 2.064 2.063 0 1.139-.925 2.065-2.064 2.065zm1.782 13.019H3.555V9h3.564v11.452zM22.225 0H1.771C.792 0 0 .774 0 1.729v20.542C0 23.227.792 24 1.771 24h20.451C23.2 24 24 23.227 24 22.271V1.729C24 .774 23.2 0 22.222 0h.003z"></path>
  </symbol>
  <symbol id="icon-git-branch" viewBox="0 0 24 24">
    <path fill="currentColor" d="M18.8 3c-1.1 0-2 .9-2 2 0 .5.2.9.5 1.2L13 10.5V5c0-1.1-.9-2-2-2s-2 .9-2 2v14c0 1.1.9 2 2 2s2-.9 2-2v-5.5l4.3-4.3c.3.3.7.5 1.2.5 1.1 0 2-.9 2-2s-.9-2-2-2zM11 19c-.6 0-1-.4-1-1s.4-1 1-1 1 .4 1 1-.4 1-1 1zm0-14c-.6 0-1-.4-1-1s.4-1 1-1 1 .4 1 1-.4 1-1 1zm7.8 2c-.6 0-1-.4-1-1s.4-1 1-1 1 .4 1 1-.4 1-1 1z"></path>
  </symbol>
  <symbol id="icon-clipboard" viewBox="0 0 24 24">
    <path fill="currentColor" d="M19 3h-4.18C14.4 1.84 13.3 1 12 1s-2.4.84-2.82 2H5c-1.1 0-2 .9-2 2v14c0 1.1.9 2 2 2h14c1.1 0 2-.9 2-2V5c0-1.1-.9-2-2-2zm-7 0c.55 0 1 .45 1 1s-.45 1-1 1-1-.45-1-1 .45-1 1-1z"></path>
  </symbol>
  <symbol id="icon-shield-generic" viewBox="0 0 24 24">
    <path fill="currentColor" d="M12 1L3 5v6c0 5.55 3.84 10.74 9 12 5.16-1.26 9-6.45 9-12V5l-9-4z"></path>
  </symbol>
  <symbol id="icon-sun" viewBox="0 0 24 24">
    <path fill="currentColor" d="M12 2.25a.75.75 0 0 1 .75.75v2.25a.75.75 0 0 1-1.5 0V3a.75.75 0 0 1 .75-.75ZM7.5 12a4.5 4.5 0 1 1 9 0 4.5 4.5 0 0 1-9 0ZM18.894 6.166a.75.75 0 0 0-1.06-1.06l-1.591 1.59a.75.75 0 1 0 1.06 1.061l1.591-1.59ZM21.75 12a.75.75 0 0 1-.75.75h-2.25a.75.75 0 0 1 0-1.5H21a.75.75 0 0 1 .75.75ZM17.834 18.894a.75.75 0 0 0 1.06-1.06l-1.59-1.591a.75.75 0 1 0-1.061 1.06l1.59 1.591ZM12 18a.75.75 0 0 1 .75.75V21a.75.75 0 0 1-1.5 0v-2.25A.75.75 0 0 1 12 18ZM7.758 17.303a.75.75 0 0 0-1.061-1.06l-1.591 1.59a.75.75 0 0 0 1.06 1.061l1.591-1.59ZM6 12a.75.75 0 0 1-.75.75H3a.75.75 0 0 1 0-1.5h2.25A.75.75 0 0 1 6 12ZM6.697 7.757a.75.75 0 0 0 1.06-1.06l-1.59-1.591a.75.75 0 0 0-1.061 1.06l1.59 1.591Z"></path>
  </symbol>
  <symbol id="icon-moon" viewBox="0 0 24 24">
    <path fill="currentColor" d="M9.528 1.718a.75.75 0 0 1 .162.819A8.97 8.97 0 0 0 9 6a9 9 0 0 0 9 9 8.97 8.97 0 0 0 3.463-.69.75.75 0 0 1 .981.98 10.503 10.503 0 0 1-9.694 6.46c-5.799 0-10.5-4.7-10.5-10.5 0-4.368 2.667-8.112 6.46-9.694a.75.75 0 0 1 .818.162Z"></path>
  </symbol>
  <symbol id="icon-menu" viewBox="0 0 24 24">
    <path fill="currentColor" d="M3 6.75A.75.75 0 0 1 3.75 6h16.5a.75.75 0 0 1 0 1.5H3.75A.75.75 0 0 1 3 6.75ZM3 12a.75.75 0 0 1 .75-.75h16.5a.75.75 0 0 1 0 1.5H3.75A.75.75 0 0 1 3 12Zm0 5.25a.75.75 0 0 1 .75-.75h16.5a.75.75 0 0 1 0 1.5H3.75a.75.75 0 0 1-.75-.75Z"></path>
  </symbol>
  <symbol id="icon-mail" viewBox="0 0 24 24">
    <path fill="currentColor" d="M1.5 8.67v8.58a3 3 0 0 0 3 3h15a3 3 0 0 0 3-3V8.67l-8.928 5.493a3 3 0 0 1-3.144 0L1.5 8.67ZM22.5 6.908V6.75a3 3 0 0 0-3-3h-15a3 3 0 0 0-3 3v.158l9.714 5.978a1.5 1.5 0 0 0 1.572 0L22.5 6.908Z"></path>
  </symbol>
  <symbol id="icon-terminal" viewBox="0 0 24 24">
    <path fill="currentColor" d="M3 3H21C21.5523 3 22 3.44772 22 4V20C22 20.5523 21.5523 21 21 21H3C2.44772 21 2 20.5523 2 20V4C2 3.44772 2.44772 3 3 3ZM12 15V17H18V15H12ZM8.41421 12L5.58579 14.8284L7 16.2426L11.2426 12L7 7.75736L5.58579 9.17157L8.41421 12Z" />
  </symbol>
  <!-- 1. Database -->
  <symbol id="icon-database" viewBox="0 0 24 24">
    <path fill="currentColor" d="M12,3C17.5,3 22,4.8 22,7V17C22,19.2 17.5,21 12,21C6.5,21 2,19.2 2,17V7C2,4.8 6.5,3 12,3M12,5C7,5 4,6.5 4,7C4,7.5 7,9 12,9C17,9 20,7.5 20,7C20,6.5 17,5 12,5M4,17C4,17.5 7,19 12,19C17,19 20,17.5 20,17V14.7C18.6,15.5 15.5,16 12,16C8.5,16 5.4,15.5 4,14.7V17M4,12C4,12.5 7,14 12,14C17,14 20,12.5 20,12V9.7C18.6,10.5 15.5,11 12,11C8.5,11 5.4,10.5 4,9.7V12Z"/>
  </symbol>
  <!-- 2. Star (Solid) -->
  <symbol id="icon-star" viewBox="0 0 24 24">
    <path fill="currentColor" d="M12,17.27L18.18,21L16.54,13.97L22,9.24L14.81,8.62L12,2L9.19,8.62L2,9.24L7.45,13.97L5.82,21L12,17.27Z"/>
  </symbol>
  <!-- 3. Star-half (Solid half-filled) -->
  <symbol id="icon-star-half" viewBox="0 0 24 24">
    <path fill="currentColor" d="M12,2L9.19,8.62L2,9.24L7.45,13.97L5.82,21L12,17.27V2Z"/>
  </symbol>
  <!-- 4. Crosshair (Solid) -->
  <symbol id="icon-crosshair" viewBox="0 0 24 24">
    <path fill="currentColor" d="M12,2C11.45,2 11,2.45 11,3V4.07C8.16,4.5 5.9,6.58 5.12,9.31L4,8.19L3.29,8.9L4.41,10.03C4.15,10.65 4,11.31 4,12C4,12.69 4.15,13.35 4.41,13.97L3.29,15.1L4,15.81L5.12,14.69C5.9,17.42 8.16,19.5 11,19.93V21C11,21.55 11.45,22 12,22C12.55,22 13,21.55 13,21V19.93C15.84,19.5 18.1,17.42 18.88,14.69L20,15.81L20.71,15.1L19.59,13.97C19.85,13.35 20,12.69 20,12C20,11.31 19.85,10.65 19.59,10.03L20.71,8.9L20,8.19L18.88,9.31C18.1,6.58 15.84,4.5 13,4.07V3C13,2.45 12.55,2 12,2M12,6A6,6 0 0,1 18,12A6,6 0 0,1 12,18A6,6 0 0,1 6,12A6,6 0 0,1 12,6M12,8A4,4 0 0,0 8,12A4,4 0 0,0 12,16A4,4 0 0,0 16,12A4,4 0 0,0 12,8Z"/>
  </symbol>
  <!-- 5. Arrow-left (Solid) -->
  <symbol id="icon-arrow-left" viewBox="0 0 24 24">
    <path fill="currentColor" d="M20,11V13H8L13.5,18.5L12.08,19.92L4.16,12L12.08,4.08L13.5,5.5L8,11H20Z"/>
  </symbol>
</svg>
